<svg width="140" height="140" viewBox="0 0 140 140" fill="none" xmlns="http://www.w3.org/2000/svg">
<circle cx="69.3396" cy="69.3398" r="64.0566" fill="#FFCE35"/>
<path d="M110.605 70C110.605 92.6408 92.2307 111.016 69.5898 111.016C46.949 111.016 28.5742 92.6408 28.5742 70C28.5742 47.3592 46.949 28.9844 69.5898 28.9844C92.2307 28.9844 110.605 47.3592 110.605 70Z" fill="#00AB5E"/>
<path d="M70.3279 24.8828H70C69.9178 24.8828 69.9178 24.8828 69.9178 24.8828H69.5898C44.7337 24.8828 24.4727 45.1439 24.4727 70C24.4727 94.855 44.7337 115.117 69.5898 115.117H69.9178H70H70.3279C94.855 114.707 114.707 94.6094 114.707 70C114.707 45.3906 94.8561 25.293 70.3279 24.8828ZM102.485 53.5938H89.1139C88.0469 46.949 86.2418 40.7967 83.6996 35.957C91.9839 39.3205 98.5464 45.7185 102.485 53.5938ZM69.5898 33.1682C69.6721 33.0859 69.8355 33.0859 69.9178 33.0859C70 33.0859 70.0822 33.1682 70.1645 33.1682C73.7737 33.3316 78.531 40.9612 80.8286 53.5938H59.1714C61.3867 41.2891 65.9807 33.7418 69.5898 33.1682ZM32.6758 70C32.6758 67.2112 33.0859 64.4223 33.6606 61.7969H49.8201C49.5744 64.5035 49.4922 67.2923 49.4922 70C49.4922 72.7066 49.5744 75.4955 49.8201 78.2031H33.6606C33.0859 75.5777 32.6758 72.7888 32.6758 70ZM36.6951 86.4062H50.8871C52.0354 93.2144 53.8405 99.449 56.3826 104.371C47.7693 101.09 40.7967 94.6094 36.6951 86.4062ZM50.8871 53.5938H36.6951C40.7967 45.3906 47.7693 38.9104 56.3826 35.6291C53.8405 40.551 52.0354 46.7845 50.8871 53.5938ZM70.1645 106.832C70.0822 106.832 70 106.914 69.9178 106.914H69.5898C65.9807 106.257 61.3867 98.7109 59.1714 86.4062H80.8275C78.531 99.0388 73.7737 106.667 70.1645 106.832ZM81.9768 78.2031H58.0232C57.8598 75.5777 57.6953 72.8711 57.6953 70C57.6953 67.1289 57.8598 64.4223 58.0232 61.7969H81.9768C82.1402 64.4223 82.3047 67.1289 82.3047 70C82.3047 72.8711 82.1402 75.5777 81.9768 78.2031ZM83.6986 104.043C86.2418 99.2033 88.0469 93.051 89.1139 86.4062H102.485C98.5464 94.2815 91.9839 100.679 83.6986 104.043ZM90.1799 78.2031C90.4256 75.4955 90.5078 72.7066 90.5078 70C90.5078 67.2923 90.4256 64.5035 90.1799 61.7969H105.52C106.176 64.4223 106.504 67.2112 106.504 70C106.504 72.7888 106.176 75.5777 105.52 78.2031H90.1799Z" fill="#90E36A"/>
<path d="M110.605 70C110.605 92.6408 92.2307 111.016 69.5898 111.016V28.9844C92.2307 28.9844 110.605 47.3592 110.605 70Z" fill="#00884A"/>
<path d="M70.3279 24.8828H70C69.9178 24.8828 69.9178 24.8828 69.9178 24.8828H69.5898V33.1682C69.6721 33.0859 69.8355 33.0859 69.9178 33.0859C70 33.0859 70.0822 33.1682 70.1645 33.1682C73.7737 33.3316 78.531 40.9612 80.8286 53.5938H69.5898V61.7969H81.9768C82.1402 64.4223 82.3047 67.1289 82.3047 70C82.3047 72.8711 82.1402 75.5777 81.9768 78.2031H69.5898V86.4062H80.8286C78.531 99.0388 73.7737 106.667 70.1645 106.832C70.0822 106.832 70 106.914 69.9178 106.914H69.5898V115.117H69.9178H70H70.3279C94.855 114.707 114.707 94.6094 114.707 70C114.707 45.3906 94.8561 25.293 70.3279 24.8828ZM102.485 53.5938H89.1139C88.0469 46.949 86.2418 40.7967 83.6996 35.957C91.9839 39.3205 98.5464 45.7185 102.485 53.5938ZM83.6986 104.043C86.2418 99.2033 88.0469 93.051 89.1139 86.4062H102.485C98.5464 94.2815 91.9839 100.679 83.6986 104.043ZM90.1799 78.2031C90.4256 75.4955 90.5078 72.7066 90.5078 70C90.5078 67.2923 90.4256 64.5035 90.1799 61.7969H105.52C106.176 64.4223 106.504 67.2112 106.504 70C106.504 72.7888 106.176 75.5777 105.52 78.2031H90.1799Z" fill="#56C225"/>
</svg>
